<?xml version="1.0" encoding="utf-8"?>
<!-- Generator: Adobe Illustrator 15.0.0, SVG Export Plug-In . SVG Version: 6.00 Build 0)  -->
<!DOCTYPE svg PUBLIC "-//W3C//DTD SVG 1.1//EN" "http://www.w3.org/Graphics/SVG/1.1/DTD/svg11.dtd">
<svg version="1.1" id="Layer_1" xmlns="http://www.w3.org/2000/svg" xmlns:xlink="http://www.w3.org/1999/xlink" x="0px" y="0px"
	 width="85px" height="85px" viewBox="0 0 85 85" enable-background="new 0 0 85 85" xml:space="preserve">
<g>
	<g>
		<polyline fill="none" stroke="#394553" stroke-width="2.5" stroke-linejoin="round" stroke-miterlimit="10" points="
			27.299,69.597 27.299,15.187 37.776,15.187 37.776,69.597 		"/>
		
			<line fill="none" stroke="#394553" stroke-width="2.5" stroke-linejoin="round" stroke-miterlimit="10" x1="32.537" y1="23.901" x2="32.537" y2="44.955"/>
	</g>
	<g>
		
			<rect x="56.729" y="23.759" transform="matrix(-0.9834 0.1816 -0.1816 -0.9834 131.2468 80.7695)" fill="none" stroke="#394553" stroke-width="2.5" stroke-linejoin="round" stroke-miterlimit="10" width="10.394" height="45.27"/>
		
			<line fill="none" stroke="#394553" stroke-width="2.5" stroke-linejoin="round" stroke-miterlimit="10" x1="60.3" y1="37.602" x2="63.549" y2="55.188"/>
	</g>
	<g>
		<g>
			<g>
				
					<line fill="none" stroke="#394553" stroke-width="2.5" stroke-linejoin="round" stroke-miterlimit="10" x1="16.479" y1="33.043" x2="23.252" y2="33.043"/>
				
					<line fill="none" stroke="#394553" stroke-width="2.5" stroke-linejoin="round" stroke-miterlimit="10" x1="16.479" y1="38.512" x2="23.252" y2="38.512"/>
				
					<line fill="none" stroke="#394553" stroke-width="2.5" stroke-linejoin="round" stroke-miterlimit="10" x1="16.479" y1="43.729" x2="23.252" y2="43.729"/>
			</g>
		</g>
		<polyline fill="none" stroke="#394553" stroke-width="2.5" stroke-linejoin="round" stroke-miterlimit="10" points="
			12.461,65.638 12.461,25.198 23.252,25.198 		"/>
	</g>
	<line fill="none" stroke="#394553" stroke-width="2.5" stroke-miterlimit="10" x1="7.782" y1="69.813" x2="77.217" y2="69.813"/>
	<g>
		<polyline fill="none" stroke="#394553" stroke-width="2.5" stroke-linejoin="round" stroke-miterlimit="10" points="
			41.789,38.578 53.527,38.578 53.527,69.597 		"/>
		
			<rect x="43.088" y="44.871" fill="none" stroke="#394553" stroke-width="2.5" stroke-miterlimit="10" width="5.098" height="10.402"/>
	</g>
</g>
</svg>
