<svg xmlns="http://www.w3.org/2000/svg" viewBox="0 0 2361.088 655.898"><defs><style>.a{fill:#bb165c;}</style></defs><path class="a" d="M206.916,57.725c-8.02,39.727-31.679,69.725-55.739,69.725-33.283,0-62.957-57.563-62.957-123.234,0-64.86,28.872-123.234,62.155-123.234,25.664,0,51.729,35.673,59.348,81.886l73.383-47.834C269.472-217.12,216.941-301.438,150.375-301.438,65.363-301.438,0-161.989,0,9.08c0,173.5,66.967,315.383,147.167,315.383,64.962,0,125.914-92.426,135.939-208.363ZM504.859,337.434l89.022-41.348c-29.273-193.77-68.17-381.053-97.443-575.634l-92.23-1.621L275.086,261.224,362.5,327.705l33.684-137.017h80.2ZM419.446,42.321l26.466-128.91,16.04,129.72ZM802.8-305.492l-251.828,21.08L556.588-110.1l76.992-8.107-1.6,451.589,96.24-17.837,1.6-439.428,79.4-8.108ZM981.648,337.434l89.022-41.348c-29.273-193.77-68.17-381.053-97.443-575.634L881-281.169,751.875,261.224l87.418,66.482,33.684-137.017h80.2ZM896.235,42.321,922.7-86.589l16.04,129.72Zm383.356-347.813-251.828,21.08,5.614,174.312,76.992-8.107-1.6,451.589,96.24-17.837,1.6-439.428,79.4-8.108Zm178.846,642.926,89.022-41.348c-29.273-193.77-68.17-381.053-97.443-575.634l-92.23-1.621L1228.664,261.224l87.418,66.482,33.684-137.017h80.2ZM1373.024,42.321l26.466-128.91,16.04,129.72Zm461.952,276.466V-311.978l-88.22,5.675.4,293.492L1636.08-282.791l-76.19-12.972,2.807,614.55h90.225V60.968l105.463,257.819ZM2014.624-17.675l81.4-173.5-63.759-118.37L1930.013-93.075V-294.952h-79.8V316.355h79.8V146.908l23.258-42.159,95.037,239.172,66.566-119.181Zm233.783-239.983c14.035,113.505,20.451,193.77,20.451,257.008,0,87.561-12.431,137.017-34.486,137.017-23.659,0-38.095-55.131-38.095-145.125,0-59.185,6.015-144.314,16.441-234.307l-93.032-46.213a1848.914,1848.914,0,0,0-16.04,240.793c0,237.55,47.719,375.378,129.122,375.378,81,0,128.32-136.206,128.32-367.271,0-93.237-7.619-192.148-21.253-269.98Z" transform="translate(0 311.978)"/></svg>