<?xml version="1.0" encoding="UTF-8"?>
<!DOCTYPE svg PUBLIC "-//W3C//DTD SVG 1.1//EN" "http://www.w3.org/Graphics/SVG/1.1/DTD/svg11.dtd">
<!-- Creator: CorelDRAW -->
<svg xmlns="http://www.w3.org/2000/svg" xml:space="preserve" width="6.82666in" height="6.82666in" style="shape-rendering:geometricPrecision; text-rendering:geometricPrecision; image-rendering:optimizeQuality; fill-rule:evenodd; clip-rule:evenodd"
viewBox="0 0 6.82666 6.82666"
 xmlns:xlink="http://www.w3.org/1999/xlink">
 <defs>
  <style type="text/css">
   <![CDATA[
    .fil25 {fill:none}
    .fil6 {fill:#186EB9}
    .fil8 {fill:#212121}
    .fil21 {fill:#263238}
    .fil7 {fill:#26C6DA}
    .fil12 {fill:#37474F}
    .fil9 {fill:#3949AB}
    .fil18 {fill:#4B884D}
    .fil24 {fill:#5D4037}
    .fil16 {fill:#66BB6A}
    .fil23 {fill:#737373}
    .fil20 {fill:#9E9E9E}
    .fil2 {fill:#AB47BC}
    .fil15 {fill:#AF3D3B}
    .fil5 {fill:#B2EBF2}
    .fil11 {fill:#CF7B00}
    .fil3 {fill:#E0B375}
    .fil22 {fill:#E0E0E0}
    .fil1 {fill:#EC407A}
    .fil13 {fill:#EF5350}
    .fil17 {fill:#F1F8E9}
    .fil4 {fill:#F9C782}
    .fil10 {fill:#FF9800}
    .fil19 {fill:#FFAB40}
    .fil14 {fill:#FFCCBC}
    .fil0 {fill:#263238;fill-rule:nonzero}
   ]]>
  </style>
 </defs>
 <g id="Layer_x0020_1">
  <metadata id="CorelCorpID_0Corel-Layer"/>
  <g id="_536788400">
   <path id="_536767448" class="fil0" d="M0.906661 4.77267c-0.0294488,0 -0.0533307,0.0238819 -0.0533307,0.0533346 0,0.0294528 0.0238819,0.0533346 0.0533307,0.0533346l5.01333 0c0.0294528,0 0.0533346,-0.0238819 0.0533346,-0.0533346 0,-0.0294528 -0.0238819,-0.0533346 -0.0533346,-0.0533346l-5.01333 0z"/>
   <path id="_536766728" class="fil0" d="M1.34959 4.69254c0,-0.0294488 -0.0238819,-0.0533307 -0.0533307,-0.0533307 -0.0294528,0 -0.0533346,0.0238819 -0.0533346,0.0533307l0 0.133465c0,0.0294528 0.0238819,0.0533346 0.0533346,0.0533346 0.0294488,0 0.0533307,-0.0238819 0.0533307,-0.0533346l0 -0.133465z"/>
   <path id="_536767184" class="fil0" d="M3.47476 4.69254c0,-0.0294488 -0.0238819,-0.0533307 -0.0533307,-0.0533307 -0.0294528,0 -0.0533346,0.0238819 -0.0533346,0.0533307l0 0.133465c0,0.0294528 0.0238819,0.0533346 0.0533346,0.0533346 0.0294488,0 0.0533307,-0.0238819 0.0533307,-0.0533346l0 -0.133465z"/>
   <path id="_536767040" class="fil0" d="M2.41218 4.69254c0,-0.0294488 -0.0238819,-0.0533307 -0.0533346,-0.0533307 -0.0294488,0 -0.0533307,0.0238819 -0.0533307,0.0533307l0 0.133465c0,0.0294528 0.0238819,0.0533346 0.0533307,0.0533346 0.0294528,0 0.0533346,-0.0238819 0.0533346,-0.0533346l0 -0.133465z"/>
   <path id="_536766896" class="fil0" d="M4.53734 4.69254c0,-0.0294488 -0.0238819,-0.0533307 -0.0533346,-0.0533307 -0.0294488,0 -0.0533307,0.0238819 -0.0533307,0.0533307l0 0.133465c0,0.0294528 0.0238819,0.0533346 0.0533307,0.0533346 0.0294528,0 0.0533346,-0.0238819 0.0533346,-0.0533346l0 -0.133465z"/>
   <path id="_536766608" class="fil0" d="M5.59993 4.69254c0,-0.0294488 -0.0238819,-0.0533307 -0.0533307,-0.0533307 -0.0294528,0 -0.0533346,0.0238819 -0.0533346,0.0533307l0 0.133465c0,0.0294528 0.0238819,0.0533346 0.0533346,0.0533346 0.0294488,0 0.0533307,-0.0238819 0.0533307,-0.0533346l0 -0.133465z"/>
   <rect id="_536766632" class="fil1" x="1.07358" y="3.82687" width="0.181575" height="0.714835"/>
   <rect id="_536766920" class="fil1" x="1.33737" y="3.82687" width="0.181575" height="0.714835"/>
   <path id="_536765936" class="fil2" d="M1.20822 3.06853l0.176094 0c0.089185,0 0.16215,0.0349606 0.16215,0.124142l0 0.642287 -0.500394 0 0 -0.642287c0,-0.089185 0.0729646,-0.124142 0.16215,-0.124142z"/>
   <rect id="_536766296" class="fil3" x="1.23357" y="2.96214" width="0.125538" height="0.160147"/>
   <g>
    <path id="_536766176" class="fil3" d="M1.43121 2.91773c0,0 0.0663346,-0.0826535 0.0341575,-0.100622 0,0 -0.0721496,0.00196063 -0.0341575,0.100622z"/>
    <path id="_536766272" class="fil3" d="M1.16132 2.91773c0,0 -0.0663346,-0.0826535 -0.0341535,-0.100622 0,0 0.0721496,0.00196063 0.0341535,0.100622z"/>
   </g>
   <ellipse id="_536766200" class="fil4" cx="1.29626" cy="2.83354" rx="0.152019" ry="0.195303"/>
   <polygon id="_536766464" class="fil5" points="1.30338,3.16447 1.36104,3.52604 1.29626,3.62269 1.23149,3.52604 1.28915,3.16447 1.29626,3.16408 "/>
   <path id="_536765048" class="fil6" d="M1.42162 3.07286c-0.0154213,-0.00245669 -0.0327205,-0.0040315 -0.0507559,-0.00433071l-0.0117638 0 -0.0628346 0.0537559 -0.0628346 -0.0537559 -0.0117598 0c-0.0180354,0.000299213 -0.0353346,0.00187402 -0.0507598,0.00433071l0.0705197 0.105776 0.0548346 -0.0562677 0.0548386 0.0562677 0.0705157 -0.105776z"/>
   <polygon id="_536765696" class="fil7" points="1.32013,3.14685 1.29626,3.12237 1.27241,3.14685 1.29626,3.17191 "/>
   <path id="_536765240" class="fil4" d="M1.59254 3.66954c-0.00529528,0.000771654 0.0536693,-0.00474803 0.0536693,-0.00474803l0.0110827 0.0899803c0,0 -0.00917717,0.0573819 -0.0554173,0.0428228 0,0 0.00859843,-0.00635827 0.0380906,-0.0442165l-0.00657874 -0.0362087c0,0 -0.0234488,-0.00755906 -0.0166378,0.0310866 0,0 -0.0283976,-0.00154724 -0.0281299,-0.0685079l0.00392126 -0.0102087z"/>
   <path id="_536765624" class="fil2" d="M1.43796 3.07413c0,0 0.0425472,-0.00672047 0.0838622,0.00925984 0.0431024,0.0166693 0.0850591,0.0566181 0.0852205,0.0841969l0.045252 0.505311 -0.0719055 0.00573622 -0.0541142 -0.393917 -0.0509921 0.00616535 -0.0373228 -0.216752z"/>
   <path id="_536765720" class="fil4" d="M0.999992 3.66954c0.00529528,0.000771654 -0.0536693,-0.00474803 -0.0536693,-0.00474803l-0.0110827 0.0899803c0,0 0.00917717,0.0573819 0.0554173,0.0428228 0,0 -0.00859449,-0.00635827 -0.0380906,-0.0442165l0.00657874 -0.0362087c0,0 0.0234528,-0.00755906 0.0166378,0.0310866 0,0 0.0283976,-0.00154724 0.0281299,-0.0685079l-0.00392126 -0.0102087z"/>
   <path id="_536765432" class="fil2" d="M1.15456 3.07413c0,0 -0.0425472,-0.00672047 -0.0838622,0.00925984 -0.0431024,0.0166693 -0.0850591,0.0566181 -0.0852205,0.0841969l-0.045252 0.505311 0.0719055 0.00573622 0.0541142 -0.393917 0.0509921 0.00616535 0.0373228 -0.216752z"/>
   <path id="_536764736" class="fil8" d="M1.25367 4.47578c-0.000925197,0.0523819 -0.00184646,0.104764 -0.00276772,0.157146 0,0 -0.198386,0.0501142 -0.197012,-0.0192205 0,0 0.041189,-0.127677 0.0549173,-0.148957 0,0 0.0693307,-0.0459921 0.144862,0.0110315z"/>
   <path id="_536764976" class="fil8" d="M1.33978 4.47578c0.00092126,0.0523819 0.00184252,0.104764 0.00276772,0.157146 0,0 0.198382,0.0501142 0.197008,-0.0192205 0,0 -0.041189,-0.127677 -0.0549134,-0.148957 0,0 -0.0693307,-0.0459921 -0.144862,0.0110315z"/>
   <rect id="_536764928" class="fil9" x="2.13616" y="3.82687" width="0.181575" height="0.714835"/>
   <rect id="_536764472" class="fil9" x="2.39996" y="3.82687" width="0.181575" height="0.714835"/>
   <path id="_536764640" class="fil10" d="M2.2708 3.06853l0.176094 0c0.089185,0 0.16215,0.0349606 0.16215,0.124142l0 0.642287 -0.500394 0 0 -0.642287c0,-0.089185 0.0729646,-0.124142 0.16215,-0.124142z"/>
   <rect id="_536764448" class="fil3" x="2.29615" y="2.96214" width="0.125538" height="0.160147"/>
   <g>
    <path id="_536763728" class="fil3" d="M2.4938 2.91773c0,0 0.0663346,-0.0826535 0.0341575,-0.100622 0,0 -0.0721496,0.00196063 -0.0341575,0.100622z"/>
    <path id="_536763992" class="fil3" d="M2.2239 2.91773c0,0 -0.0663346,-0.0826535 -0.0341535,-0.100622 0,0 0.0721496,0.00196063 0.0341535,0.100622z"/>
   </g>
   <ellipse id="_536763488" class="fil4" cx="2.35885" cy="2.83354" rx="0.152019" ry="0.195303"/>
   <polygon id="_536763848" class="fil5" points="2.36596,3.16447 2.42363,3.52604 2.35885,3.62269 2.29407,3.52604 2.35173,3.16447 2.35885,3.16408 "/>
   <path id="_536763704" class="fil11" d="M2.4842 3.07286c-0.0154213,-0.00245669 -0.0327205,-0.0040315 -0.0507559,-0.00433071l-0.0117638 0 -0.0628346 0.0537559 -0.0628346 -0.0537559 -0.0117598 0c-0.0180354,0.000299213 -0.0353346,0.00187402 -0.0507598,0.00433071l0.0705197 0.105776 0.0548346 -0.0562677 0.0548386 0.0562677 0.0705157 -0.105776z"/>
   <polygon id="_536763632" class="fil7" points="2.38271,3.14685 2.35885,3.12237 2.33499,3.14685 2.35885,3.17191 "/>
   <path id="_536763440" class="fil10" d="M2.65512 3.66954c-0.00529528,0.000771654 0.0536693,-0.00474803 0.0536693,-0.00474803l0.0110827 0.0899803c0,0 -0.00917717,0.0573819 -0.0554173,0.0428228 0,0 0.00859449,-0.00635827 0.0380906,-0.0442165l-0.00657874 -0.0362087c0,0 -0.0234528,-0.00755906 -0.0166378,0.0310866 0,0 -0.0283976,-0.00154724 -0.0281299,-0.0685079l0.00392126 -0.0102087z"/>
   <path id="_536762984" class="fil10" d="M2.50055 3.07413c0,0 0.0425472,-0.00672047 0.0838622,0.00925984 0.0431024,0.0166693 0.0850591,0.0566181 0.0852205,0.0841969l0.045252 0.505311 -0.0719055 0.00573622 -0.0541142 -0.393917 -0.0509921 0.00616535 -0.0373228 -0.216752z"/>
   <path id="_536762744" class="fil4" d="M2.06257 3.66954c0.00529528,0.000771654 -0.0536693,-0.00474803 -0.0536693,-0.00474803l-0.0110827 0.0899803c0,0 0.00917717,0.0573819 0.0554173,0.0428228 0,0 -0.00859843,-0.00635827 -0.0380906,-0.0442165l0.00657874 -0.0362087c0,0 0.0234488,-0.00755906 0.0166378,0.0310866 0,0 0.0283976,-0.00154724 0.0281299,-0.0685079l-0.00392126 -0.0102087z"/>
   <path id="_536762840" class="fil10" d="M2.21715 3.07413c0,0 -0.0425472,-0.00672047 -0.0838622,0.00925984 -0.0431024,0.0166693 -0.0850591,0.0566181 -0.0852205,0.0841969l-0.045252 0.505311 0.0719055 0.00573622 0.0541142 -0.393917 0.0509921 0.00616535 0.0373228 -0.216752z"/>
   <path id="_536763080" class="fil8" d="M2.31625 4.47578c-0.000925197,0.0523819 -0.00184646,0.104764 -0.00276772,0.157146 0,0 -0.198386,0.0501142 -0.197012,-0.0192205 0,0 0.041189,-0.127677 0.0549173,-0.148957 0,0 0.0693307,-0.0459921 0.144862,0.0110315z"/>
   <path id="_536763032" class="fil8" d="M2.40236 4.47578c0.00092126,0.0523819 0.00184252,0.104764 0.00276772,0.157146 0,0 0.198382,0.0501142 0.197008,-0.0192205 0,0 -0.041189,-0.127677 -0.0549134,-0.148957 0,0 -0.0693307,-0.0459921 -0.144862,0.0110315z"/>
   <rect id="_536762864" class="fil12" x="4.26132" y="3.82687" width="0.181575" height="0.714835"/>
   <rect id="_536762384" class="fil12" x="4.52512" y="3.82687" width="0.181575" height="0.714835"/>
   <path id="_536762024" class="fil13" d="M4.39596 3.06853l0.176094 0c0.089185,0 0.16215,0.0349606 0.16215,0.124142l0 0.642287 -0.500394 0 0 -0.642287c0,-0.089185 0.0729646,-0.124142 0.16215,-0.124142z"/>
   <rect id="_536762624" class="fil3" x="4.42131" y="2.96214" width="0.125538" height="0.160147"/>
   <path id="_536761928" class="fil3" d="M4.61896 2.91773c0,0 0.0663346,-0.0826535 0.0341535,-0.100622 0,0 -0.0721496,0.00196063 -0.0341535,0.100622z"/>
   <path id="_536762240" class="fil3" d="M4.34906 2.91773c0,0 -0.0663346,-0.0826535 -0.0341535,-0.100622 0,0 0.0721496,0.00196063 0.0341535,0.100622z"/>
   <ellipse id="_536762312" class="fil4" cx="4.48401" cy="2.83354" rx="0.152019" ry="0.195303"/>
   <polygon id="_536761904" class="fil14" points="4.49113,3.16447 4.54878,3.52604 4.48401,3.62269 4.41923,3.52604 4.47689,3.16447 4.48401,3.16408 "/>
   <path id="_536761784" class="fil15" d="M4.60936 3.07286c-0.0154252,-0.00245669 -0.0327205,-0.0040315 -0.0507598,-0.00433071l-0.0117598 0 -0.0628346 0.0537559 -0.0628346 -0.0537559 -0.0117598 0c-0.0180394,0.000299213 -0.0353346,0.00187402 -0.0507598,0.00433071l0.0705157 0.105776 0.0548386 -0.0562677 0.0548386 0.0562677 0.0705157 -0.105776z"/>
   <polygon id="_536761304" class="fil14" points="4.50787,3.14685 4.48401,3.12237 4.46015,3.14685 4.48401,3.17191 "/>
   <path id="_536761592" class="fil4" d="M4.78028 3.66954c-0.00529528,0.000771654 0.0536693,-0.00474803 0.0536693,-0.00474803l0.0110827 0.0899803c0,0 -0.0091811,0.0573819 -0.0554213,0.0428228 0,0 0.00859843,-0.00635827 0.0380945,-0.0442165l-0.00657874 -0.0362087c0,0 -0.0234528,-0.00755906 -0.0166417,0.0310866 0,0 -0.0283937,-0.00154724 -0.028126,-0.0685079l0.00392126 -0.0102087z"/>
   <path id="_536761280" class="fil13" d="M4.62571 3.07413c0,0 0.0425472,-0.00672047 0.0838622,0.00925984 0.0431024,0.0166693 0.0850591,0.0566181 0.0852205,0.0841969l0.045252 0.505311 -0.0719055 0.00573622 -0.0541181 -0.393917 -0.0509882 0.00616535 -0.0373228 -0.216752z"/>
   <path id="_536760632" class="fil4" d="M4.18773 3.66954c0.00529528,0.000771654 -0.0536654,-0.00474803 -0.0536654,-0.00474803l-0.0110827 0.0899803c0,0 0.00917717,0.0573819 0.0554173,0.0428228 0,0 -0.00859843,-0.00635827 -0.0380906,-0.0442165l0.00657874 -0.0362087c0,0 0.0234488,-0.00755906 0.0166378,0.0310866 0,0 0.0283976,-0.00154724 0.028126,-0.0685079l-0.00392126 -0.0102087z"/>
   <path id="_536761088" class="fil13" d="M4.34231 3.07413c0,0 -0.0425472,-0.00672047 -0.0838622,0.00925984 -0.0431024,0.0166693 -0.085063,0.0566181 -0.0852244,0.0841969l-0.045252 0.505311 0.0719094 0.00573622 0.0541142 -0.393917 0.0509882 0.00616535 0.0373268 -0.216752z"/>
   <path id="_536761040" class="fil8" d="M4.44141 4.47578c-0.00092126,0.0523819 -0.00184252,0.104764 -0.00276378,0.157146 0,0 -0.198386,0.0501142 -0.197012,-0.0192205 0,0 0.041189,-0.127677 0.0549134,-0.148957 0,0 0.0693307,-0.0459921 0.144862,0.0110315z"/>
   <path id="_536761016" class="fil8" d="M4.52752 4.47578c0.000925197,0.0523819 0.00184646,0.104764 0.00276772,0.157146 0,0 0.198386,0.0501142 0.197012,-0.0192205 0,0 -0.041189,-0.127677 -0.0549173,-0.148957 0,0 -0.0693307,-0.0459921 -0.144862,0.0110315z"/>
   <rect id="_536760440" class="fil9" x="5.32391" y="3.82687" width="0.181575" height="0.714835"/>
   <rect id="_536760752" class="fil9" x="5.5877" y="3.82687" width="0.181575" height="0.714835"/>
   <path id="_536760944" class="fil16" d="M5.45854 3.06853l0.176094 0c0.089185,0 0.16215,0.0349606 0.16215,0.124142l0 0.642287 -0.500394 0 0 -0.642287c0,-0.089185 0.0729646,-0.124142 0.16215,-0.124142z"/>
   <rect id="_536759792" class="fil3" x="5.48389" y="2.96214" width="0.125538" height="0.160147"/>
   <path id="_536759672" class="fil3" d="M5.68154 2.91773c0,0 0.0663346,-0.0826535 0.0341535,-0.100622 0,0 -0.0721496,0.00196063 -0.0341535,0.100622z"/>
   <path id="_536760104" class="fil3" d="M5.41165 2.91773c0,0 -0.0663346,-0.0826535 -0.0341535,-0.100622 0,0 0.0721496,0.00196063 0.0341535,0.100622z"/>
   <ellipse id="_536760368" class="fil4" cx="5.54659" cy="2.83354" rx="0.152019" ry="0.195303"/>
   <polygon id="_536759936" class="fil17" points="5.55371,3.16447 5.61137,3.52604 5.54659,3.62269 5.48181,3.52604 5.53947,3.16447 5.54659,3.16408 "/>
   <path id="_536760152" class="fil18" d="M5.67194 3.07286c-0.0154252,-0.00245669 -0.0327205,-0.0040315 -0.0507598,-0.00433071l-0.0117598 0 -0.0628346 0.0537559 -0.0628346 -0.0537559 -0.0117598 0c-0.0180394,0.000299213 -0.0353346,0.00187402 -0.0507598,0.00433071l0.0705157 0.105776 0.0548386 -0.0562677 0.0548386 0.0562677 0.0705157 -0.105776z"/>
   <polygon id="_536759624" class="fil17" points="5.57045,3.14685 5.54659,3.12237 5.52273,3.14685 5.54659,3.17191 "/>
   <path id="_536792024" class="fil4" d="M5.84286 3.66954c-0.00529528,0.000771654 0.0536693,-0.00474803 0.0536693,-0.00474803l0.0110827 0.0899803c0,0 -0.0091811,0.0573819 -0.0554213,0.0428228 0,0 0.00859843,-0.00635827 0.0380945,-0.0442165l-0.00657874 -0.0362087c0,0 -0.0234528,-0.00755906 -0.0166417,0.0310866 0,0 -0.0283937,-0.00154724 -0.028126,-0.0685079l0.00392126 -0.0102087z"/>
   <path id="_536792096" class="fil16" d="M5.68829 3.07413c0,0 0.0425472,-0.00672047 0.0838622,0.00925984 0.0431024,0.0166693 0.0850591,0.0566181 0.0852205,0.0841969l0.045252 0.505311 -0.0719055 0.00573622 -0.0541181 -0.393917 -0.0509882 0.00616535 -0.0373228 -0.216752z"/>
   <path id="_536791760" class="fil4" d="M5.25031 3.66954c0.00529528,0.000771654 -0.0536654,-0.00474803 -0.0536654,-0.00474803l-0.0110827 0.0899803c0,0 0.00917717,0.0573819 0.0554173,0.0428228 0,0 -0.00859843,-0.00635827 -0.0380906,-0.0442165l0.00657874 -0.0362087c0,0 0.0234488,-0.00755906 0.0166378,0.0310866 0,0 0.0283976,-0.00154724 0.0281299,-0.0685079l-0.0039252 -0.0102087z"/>
   <path id="_536791856" class="fil16" d="M5.40489 3.07413c0,0 -0.0425472,-0.00672047 -0.0838622,0.00925984 -0.0431024,0.0166693 -0.085063,0.0566181 -0.0852244,0.0841969l-0.045252 0.505311 0.0719094 0.00573622 0.0541142 -0.393917 0.0509882 0.00616535 0.0373268 -0.216752z"/>
   <path id="_536791328" class="fil8" d="M5.504 4.47578c-0.000925197,0.0523819 -0.00184646,0.104764 -0.00276772,0.157146 0,0 -0.198386,0.0501142 -0.197012,-0.0192205 0,0 0.041189,-0.127677 0.0549173,-0.148957 0,0 0.0693307,-0.0459921 0.144862,0.0110315z"/>
   <path id="_536791808" class="fil8" d="M5.5901 4.47578c0.000925197,0.0523819 0.00184646,0.104764 0.00276772,0.157146 0,0 0.198386,0.0501142 0.197012,-0.0192205 0,0 -0.041189,-0.127677 -0.0549173,-0.148957 0,0 -0.0693307,-0.0459921 -0.144862,0.0110315z"/>
   <rect id="_536791160" class="fil19" x="3.12228" y="3.54409" width="0.243922" height="0.960283"/>
   <rect id="_536791376" class="fil19" x="3.47665" y="3.54409" width="0.243922" height="0.960283"/>
   <path id="_536790464" class="fil20" d="M3.30315 2.52536l0.236559 0c0.119807,0 0.217827,0.0469646 0.217827,0.166768l0 0.862827 -0.672213 0 0 -0.862827c0,-0.119807 0.0980197,-0.166768 0.217827,-0.166768z"/>
   <rect id="_536790368" class="fil3" x="3.3372" y="2.38244" width="0.168644" height="0.215135"/>
   <g>
    <path id="_536791064" class="fil3" d="M3.60271 2.32278c0,0 0.0891102,-0.111035 0.0458819,-0.135173 0,0 -0.0969252,0.00263386 -0.0458819,0.135173z"/>
    <path id="_536790440" class="fil3" d="M3.24015 2.32278c0,0 -0.0891102,-0.111035 -0.0458819,-0.135173 0,0 0.0969252,0.00263386 0.0458819,0.135173z"/>
   </g>
   <ellipse id="_536790560" class="fil4" cx="3.42143" cy="2.20968" rx="0.204217" ry="0.262363"/>
   <path id="_536790272" class="fil21" d="M3.23226 2.23263c0,0 0.0514331,-0.0952992 0.0590354,-0.125701 0,0 0.167205,0.182409 0.304012,0.0152008l0.00759843 0.129205c0,0 0.144409,-0.288811 -0.182406,-0.304012 0,0 -0.311614,0.00760236 -0.18824,0.285307z"/>
   <polygon id="_536789864" class="fil22" points="3.43098,2.65424 3.50844,3.13996 3.42143,3.26979 3.33441,3.13996 3.41187,2.65424 3.42143,2.65372 "/>
   <path id="_536789792" class="fil23" d="M3.58982 2.53118c-0.0207205,-0.00330315 -0.0439567,-0.00541732 -0.068189,-0.0058189l-0.0157992 0 -0.0844094 0.0722126 -0.0844094 -0.0722126 -0.0157992 0c-0.0242283,0.000401575 -0.0474685,0.00251575 -0.068189,0.0058189l0.0947323 0.142094 0.0736654 -0.0755866 0.0736654 0.0755866 0.0947323 -0.142094z"/>
   <polygon id="_536790104" class="fil22" points="3.45348,2.63058 3.42143,2.59769 3.38937,2.63058 3.42143,2.66423 "/>
   <path id="_536789888" class="fil4" d="M3.81943 3.33273c-0.00711024,0.0010315 0.0720945,-0.00638189 0.0720945,-0.00638189l0.0148898 0.120878c0,0 -0.0123307,0.0770866 -0.0744449,0.0575276 0,0 0.0115472,-0.00854331 0.0511693,-0.0594016l-0.00883858 -0.0486417c0,0 -0.0315,-0.0101496 -0.0223504,0.0417638 0,0 -0.0381496,-0.00207874 -0.0377874,-0.0920354l0.00526772 -0.0137087z"/>
   <path id="_536790224" class="fil20" d="M3.61178 2.53288c0,0 0.0571575,-0.00902362 0.112657,0.012437 0.0579016,0.0223937 0.114268,0.076063 0.114484,0.11311l0.0607913 0.678819 -0.0965984 0.00770472 -0.0726969 -0.529173 -0.0684961 0.00828346 -0.0501417 -0.291181z"/>
   <path id="_536789456" class="fil4" d="M3.02342 3.33273c0.00711417,0.0010315 -0.0720945,-0.00638189 -0.0720945,-0.00638189l-0.0148898 0.120878c0,0 0.0123307,0.0770866 0.0744488,0.0575276 0,0 -0.0115512,-0.00854331 -0.0511693,-0.0594016l0.00883465 -0.0486417c0,0 0.0315039,-0.0101496 0.0223543,0.0417638 0,0 0.0381457,-0.00207874 0.0377835,-0.0920354l-0.00526772 -0.0137087z"/>
   <path id="_536789312" class="fil20" d="M3.23107 2.53288c0,0 -0.0571575,-0.00902362 -0.112654,0.012437 -0.0579055,0.0223937 -0.114268,0.076063 -0.114484,0.11311l-0.0607913 0.678819 0.0965945 0.00770472 0.0726969 -0.529173 0.0685 0.00828346 0.0501378 -0.291181z"/>
   <path id="_536789216" class="fil8" d="M3.3642 4.41581c-0.00124016,0.0703701 -0.00248031,0.140736 -0.00372047,0.211106 0,0 -0.2665,0.067315 -0.264657,-0.0258228 0,0 0.0553346,-0.17152 0.0737717,-0.200106 0,0 0.0931378,-0.0617835 0.194606,0.0148228z"/>
   <path id="_536788952" class="fil8" d="M3.47987 4.41581c0.00124016,0.0703701 0.00247638,0.140736 0.00371654,0.211106 0,0 0.266504,0.067315 0.264657,-0.0258228 0,0 -0.0553307,-0.17152 -0.0737717,-0.200106 0,0 -0.0931339,-0.0617835 -0.194602,0.0148228z"/>
   <path id="_536789120" class="fil24" d="M1.15545 2.85062c0.119787,-0.221945 0.108602,0.115315 0.270252,-0.0822559l0.00565748 0.0961811c0,0 0.107496,-0.214992 -0.135783,-0.226307 0,0 -0.231965,0.00565748 -0.140126,0.212382z"/>
   <path id="_536789096" class="fil24" d="M4.34498 2.85062c0,0 0.0382874,-0.0709409 0.0439449,-0.0935709 0.180055,0.196421 0.218846,-0.115539 0.231965,0.107496 0,0 0.107496,-0.214992 -0.135783,-0.226307 0,0 -0.231965,0.00565748 -0.140126,0.212382z"/>
   <path id="_536788040" class="fil21" d="M2.21982 2.85062c0,0 0.0382874,-0.0709409 0.0439449,-0.0935709 0.180055,0.196421 0.218846,-0.115539 0.231965,0.107496 0,0 0.107496,-0.214992 -0.135783,-0.226307 0,0 -0.231965,0.00565748 -0.140126,0.212382z"/>
   <path id="_536788568" class="fil21" d="M5.40756 2.85062c0.119787,-0.221945 0.108602,0.115315 0.270252,-0.0822559l0.00565748 0.0961811c0,0 0.107496,-0.214992 -0.135783,-0.226307 0,0 -0.231965,0.00565748 -0.140126,0.212382z"/>
  </g>
 </g>
 <rect class="fil25" width="6.82666" height="6.82666"/>
</svg>
